# xmcd CD database file
#
# Track frame offsets:
#	150
#	40337
#	101344
#	132117
#	174256
#	241972
#
# Disc length: 4327 seconds
#
# Revision: 0
# Processed by: cddbd v1.5.2PL0 Copyright (c) Steve Scherf et al.
# Submitted via: CDex 1.70beta2
#
DISCID=4110e506
DTITLE=Remote Viewing Ensemble - Remote Viewing Ensemble
DYEAR=1997
DGENRE=Jazz
TTITLE0=Mekong Delta
TTITLE1=Dromma
TTITLE2=Irrtiav54
TTITLE3=Bhayanaka
TTITLE4=14 Houses
TTITLE5=Adbhuta
EXTD=YEAR: 1997
EXTT0=
EXTT1=
EXTT2=
EXTT3=
EXTT4=
EXTT5=
PLAYORDER=
